<mxfile host="app.diagrams.net" modified="2024-05-20T03:09:23.321Z" agent="Mozilla/5.0 (Windows NT 10.0; Win64; x64) AppleWebKit/537.36 (KHTML, like Gecko) Chrome/124.0.0.0 Safari/537.36" etag="0xjc9xulZZuAARHx14fn" version="24.4.4" type="github">
  <diagram name="Page-1" id="lwJIw0h3geePkscJbijO">
    <mxGraphModel dx="2284" dy="746" grid="1" gridSize="10" guides="1" tooltips="1" connect="1" arrows="1" fold="1" page="1" pageScale="1" pageWidth="850" pageHeight="1100" math="0" shadow="0">
      <root>
        <mxCell id="0" />
        <mxCell id="1" parent="0" />
        <mxCell id="IYP781yclZa2zVN-QoT9-1" value="ChessGameController" style="rounded=0;whiteSpace=wrap;html=1;" vertex="1" parent="1">
          <mxGeometry x="280" y="80" width="290" height="90" as="geometry" />
        </mxCell>
        <mxCell id="IYP781yclZa2zVN-QoT9-2" value="" style="shape=flexArrow;endArrow=classic;startArrow=classic;html=1;rounded=0;" edge="1" parent="1">
          <mxGeometry width="100" height="100" relative="1" as="geometry">
            <mxPoint x="424" y="280" as="sourcePoint" />
            <mxPoint x="424" y="170" as="targetPoint" />
          </mxGeometry>
        </mxCell>
        <mxCell id="IYP781yclZa2zVN-QoT9-4" value="ChessGameView" style="rounded=0;whiteSpace=wrap;html=1;" vertex="1" parent="1">
          <mxGeometry x="280" y="280" width="290" height="90" as="geometry" />
        </mxCell>
        <mxCell id="IYP781yclZa2zVN-QoT9-5" value="" style="strokeWidth=2;html=1;shape=mxgraph.flowchart.annotation_2;align=left;labelPosition=right;pointerEvents=1;direction=south;" vertex="1" parent="1">
          <mxGeometry x="230" y="370" width="390" height="50" as="geometry" />
        </mxCell>
        <mxCell id="IYP781yclZa2zVN-QoT9-6" value="StockfishEngine" style="rounded=0;whiteSpace=wrap;html=1;" vertex="1" parent="1">
          <mxGeometry x="480" y="420" width="290" height="90" as="geometry" />
        </mxCell>
        <mxCell id="IYP781yclZa2zVN-QoT9-7" value="Board" style="rounded=0;whiteSpace=wrap;html=1;" vertex="1" parent="1">
          <mxGeometry x="90" y="420" width="290" height="90" as="geometry" />
        </mxCell>
        <mxCell id="IYP781yclZa2zVN-QoT9-12" value="" style="strokeWidth=2;html=1;shape=mxgraph.flowchart.annotation_2;align=left;labelPosition=right;pointerEvents=1;direction=south;" vertex="1" parent="1">
          <mxGeometry x="40" y="510" width="390" height="50" as="geometry" />
        </mxCell>
        <mxCell id="IYP781yclZa2zVN-QoT9-16" value="" style="edgeStyle=orthogonalEdgeStyle;rounded=0;orthogonalLoop=1;jettySize=auto;html=1;" edge="1" parent="1" source="IYP781yclZa2zVN-QoT9-14" target="IYP781yclZa2zVN-QoT9-15">
          <mxGeometry relative="1" as="geometry" />
        </mxCell>
        <mxCell id="IYP781yclZa2zVN-QoT9-14" value="Piece" style="whiteSpace=wrap;html=1;aspect=fixed;" vertex="1" parent="1">
          <mxGeometry x="390" y="560" width="80" height="80" as="geometry" />
        </mxCell>
        <mxCell id="IYP781yclZa2zVN-QoT9-15" value="Piece subclasses&lt;br&gt;(King, Queen, pawn, etc..)" style="whiteSpace=wrap;html=1;aspect=fixed;" vertex="1" parent="1">
          <mxGeometry x="390" y="720" width="80" height="80" as="geometry" />
        </mxCell>
        <mxCell id="IYP781yclZa2zVN-QoT9-19" value="" style="edgeStyle=orthogonalEdgeStyle;rounded=0;orthogonalLoop=1;jettySize=auto;html=1;" edge="1" parent="1" source="IYP781yclZa2zVN-QoT9-17" target="IYP781yclZa2zVN-QoT9-18">
          <mxGeometry relative="1" as="geometry" />
        </mxCell>
        <mxCell id="IYP781yclZa2zVN-QoT9-17" value="Square" style="whiteSpace=wrap;html=1;aspect=fixed;" vertex="1" parent="1">
          <mxGeometry y="560" width="80" height="80" as="geometry" />
        </mxCell>
        <mxCell id="IYP781yclZa2zVN-QoT9-18" value="Contains&lt;br&gt;[piece]" style="ellipse;shape=cloud;whiteSpace=wrap;html=1;" vertex="1" parent="1">
          <mxGeometry x="-20" y="720" width="120" height="80" as="geometry" />
        </mxCell>
      </root>
    </mxGraphModel>
  </diagram>
</mxfile>
